<?xml version="1.0" standalone="no"?>
<!DOCTYPE svg PUBLIC "-//W3C//DTD SVG 20010904//EN"
 "http://www.w3.org/TR/2001/REC-SVG-20010904/DTD/svg10.dtd">
<svg version="1.0" xmlns="http://www.w3.org/2000/svg"
 width="946.000000pt" height="946.000000pt" viewBox="0 0 946.000000 946.000000"
 preserveAspectRatio="xMidYMid meet">
<metadata>
Created by potrace 1.11, written by Peter Selinger 2001-2013
</metadata>
<g transform="translate(0.000000,946.000000) scale(0.100000,-0.100000)"
fill="#000000" stroke="none">
<path d="M990 4730 l0 -4730 3745 0 3745 0 0 4730 0 4730 -3745 0 -3745 0 0
-4730z m4107 4377 c5 -3 78 -13 163 -22 217 -22 292 -36 693 -129 117 -27 457
-138 552 -181 112 -50 310 -149 340 -169 35 -25 51 -35 96 -60 19 -10 50 -32
70 -47 20 -16 41 -29 47 -29 6 0 12 -3 14 -8 2 -4 23 -23 48 -42 25 -19 50
-39 55 -45 6 -6 32 -29 60 -51 74 -58 280 -270 336 -344 26 -36 57 -74 67 -86
62 -67 175 -265 267 -469 57 -124 141 -372 170 -500 66 -289 68 -729 5 -1010
-5 -22 -16 -78 -25 -125 -37 -191 -126 -411 -274 -685 -19 -35 -187 -262 -211
-285 -8 -8 -35 -40 -60 -70 -40 -50 -135 -150 -143 -150 -2 0 -34 -30 -72 -68
-84 -81 -147 -132 -275 -224 -25 -17 -46 -35 -48 -40 -2 -4 -10 -8 -17 -8 -7
0 -15 -4 -17 -8 -4 -11 -217 -162 -228 -162 -4 0 -10 -3 -12 -8 -1 -4 -28 -25
-58 -47 -30 -22 -56 -43 -58 -47 -2 -5 -9 -8 -15 -8 -7 0 -28 -14 -47 -30 -19
-16 -40 -30 -47 -30 -6 0 -13 -3 -15 -7 -5 -14 -96 -83 -107 -83 -6 0 -11 -4
-11 -8 0 -5 -11 -14 -24 -20 -14 -6 -33 -18 -43 -26 -10 -8 -49 -38 -88 -67
-92 -70 -111 -87 -228 -199 -93 -89 -215 -242 -210 -261 2 -5 -1 -9 -6 -9 -15
0 -101 -217 -101 -256 0 -8 -6 -36 -14 -62 -25 -84 -38 -174 -43 -297 -3 -66
-10 -126 -15 -132 -8 -9 -98 -13 -370 -13 -198 0 -363 -2 -367 -4 -4 -3 -216
-6 -471 -8 l-464 -2 -7 27 c-22 81 -15 537 10 677 5 30 15 87 21 125 6 39 15
84 20 100 70 232 80 259 152 400 44 87 115 198 129 203 5 2 9 10 9 18 0 8 4
14 8 14 4 0 15 12 25 28 23 37 169 195 243 262 32 29 103 87 149 122 6 4 26
20 45 36 19 16 87 69 151 119 64 49 122 95 130 101 8 7 84 65 169 129 85 64
157 120 158 125 2 4 10 8 17 8 17 0 270 244 295 285 10 16 27 39 37 50 26 27
114 161 138 210 11 22 22 42 26 45 17 15 88 186 112 270 23 84 36 174 42 290
6 105 -9 317 -25 355 -13 31 -40 123 -40 134 0 34 -105 219 -164 289 -50 60
-138 141 -196 182 -19 13 -37 27 -40 30 -38 42 -304 154 -390 165 -17 2 -34 6
-39 9 -4 3 -60 14 -124 26 -172 30 -363 28 -551 -6 -87 -16 -313 -87 -363
-115 -18 -10 -63 -35 -100 -55 -59 -32 -100 -58 -138 -86 -158 -117 -326 -327
-381 -477 -10 -25 -21 -50 -25 -56 -3 -5 -10 -26 -14 -45 -4 -19 -11 -41 -15
-50 -4 -8 -13 -40 -19 -70 -7 -30 -16 -73 -21 -95 -11 -47 -29 -206 -39 -356
-4 -58 -11 -110 -14 -116 -14 -23 -12 -23 -1369 -39 l-557 -7 -10 27 c-6 14
-14 131 -17 259 -8 287 14 597 56 797 43 199 114 436 163 541 85 183 145 298
173 330 8 8 14 19 14 22 0 22 160 244 258 357 76 89 282 290 368 359 120 98
341 239 494 318 30 15 57 30 60 33 3 3 52 25 110 49 58 25 123 52 145 62 147
64 483 147 725 179 47 6 131 18 188 26 57 9 174 19 260 24 162 8 744 6 759 -3z
m-192 -7367 c193 -19 407 -117 547 -251 63 -60 158 -193 158 -220 0 -10 5 -21
10 -24 6 -3 10 -17 10 -30 0 -13 4 -26 8 -29 12 -7 23 -223 13 -249 -5 -12
-14 -43 -20 -70 -12 -52 -50 -140 -63 -145 -4 -2 -8 -10 -8 -17 0 -7 -4 -15
-8 -17 -4 -2 -23 -23 -42 -47 -102 -130 -236 -216 -445 -286 -335 -113 -755
-43 -1008 167 -113 93 -163 159 -216 278 -29 64 -34 90 -39 178 -6 130 13 215
76 335 59 113 135 191 273 281 93 61 162 87 384 146 42 11 261 11 370 0z"/>
</g>
</svg>
